<?xml version="1.0" encoding="UTF-8"?>
<svg width="32px" height="32px" viewBox="0 0 32 32" version="1.1" xmlns="http://www.w3.org/2000/svg" xmlns:xlink="http://www.w3.org/1999/xlink">
    <!-- Generator: Sketch 43.2 (39069) - http://www.bohemiancoding.com/sketch -->
    <title>chrome</title>
    <desc>Created with Sketch.</desc>
    <defs>
        <path d="M13.5822819,31.1463586 C5.91831724,30.146139 0,23.584604 0,15.6391922 C0,12.5043097 0.921314583,9.5848577 2.50765557,7.13741725 L9.06267972,18.4910521 C10.1633183,21.0245637 12.6856815,22.7961107 15.6213392,22.7961107 C16.781846,22.7961107 17.8777659,22.5192653 18.8468012,22.0279437 L13.5822819,31.1463586 Z M14.7443567,31.2541545 L21.1166343,20.2170459 C22.1490456,18.9762543 22.7700877,17.3803322 22.7700877,15.6391922 C22.7700877,13.0618131 21.4092377,10.8026408 19.367643,9.54255795 L30.011205,9.54255795 C30.8041317,11.4160489 31.2426785,13.476348 31.2426785,15.6391922 C31.2426785,24.2764795 24.2487667,31.2783844 15.6213392,31.2783844 C15.32704,31.2783844 15.0346415,31.2702367 14.7443567,31.2541545 Z M3.17965842,6.1807919 C6.03289939,2.42482254 10.5442687,0 15.6213392,0 C21.6726348,0 26.920298,3.44469126 29.5146428,8.48227373 L15.3565708,8.48227373 L15.3565708,8.4870915 C11.6243824,8.62313212 8.62222215,11.6234916 8.47801444,15.3578137 L3.17965842,6.1807919 Z M15.6213392,21.2056843 C12.55056,21.2056843 10.0612015,18.7134809 10.0612015,15.6391922 C10.0612015,12.5649035 12.55056,10.0727001 15.6213392,10.0727001 C18.6921185,10.0727001 21.1814769,12.5649035 21.1814769,15.6391922 C21.1814769,18.7134809 18.6921185,21.2056843 15.6213392,21.2056843 Z" id="path-1"></path>
    </defs>
    <g id="SurfstatsV2" stroke="none" stroke-width="1" fill="none" fill-rule="evenodd">
        <g id="V29" transform="translate(-488.000000, -246.000000)">
            <g id="Group-3" transform="translate(339.000000, 140.000000)">
                <g id="card1" transform="translate(0.000000, 25.000000)">
                    <g id="stats" transform="translate(44.000000, 0.000000)">
                        <g id="Group" transform="translate(10.000000, 0.000000)">
                            <g id="chrome" transform="translate(95.000000, 81.000000)">
                                <g id="img">
                                    <mask id="mask-2" fill="white">
                                        <use xlink:href="#path-1"></use>
                                    </mask>
                                    <use id="Oval-1" fill="#56AFEF" xlink:href="#path-1"></use>
                                    <polygon id="Path-14" fill="#FB6757" mask="url(#mask-2)" points="2.35343998 4.71640098 8.60859488 16.7900769 9.42927369 13.2727082 11.7247956 10.3496786 15.6958054 9.29716014 19.7309388 9.0662584 34.5481472 8.86176022 19.1750284 -1.9020919 8.58635847 0.0284744296"></polygon>
                                    <polygon id="Path-15" fill="#F6D923" mask="url(#mask-2)" points="17.9665052 9.02173475 20.364418 11.4865849 21.9070046 13.9514351 21.9070046 16.0223027 20.7538138 19.2067794 14.0032523 31.9395089 17.5807293 32.1362413 25.3484774 29.512452 30.8248407 22.7200063 32.6590863 15.8939089 31.8720207 10.5438224 30.8853445 9.12786671"></polygon>
                                    <polygon id="Path-16" fill="#6CE84E" mask="url(#mask-2)" points="2.42894036 6.22295717 5.11799505 10.7514269 9.02074423 16.6958524 10.987374 19.9781776 12.6928553 21.2615978 14.8937431 21.8864821 17.8816966 21.8181434 19.5949347 21.1254382 13.4949175 32.2868969 2.77334621 28.1182404 -1.68531331 18.3727374 -1.19352658 11.0506673"></polygon>
                                </g>
                            </g>
                        </g>
                    </g>
                </g>
            </g>
        </g>
    </g>
</svg>