<?xml version="1.0" encoding="UTF-8"?>
<svg width="33px" height="33px" viewBox="0 0 33 33" version="1.1" xmlns="http://www.w3.org/2000/svg" xmlns:xlink="http://www.w3.org/1999/xlink">
    <!-- Generator: Sketch 43.2 (39069) - http://www.bohemiancoding.com/sketch -->
    <title>firefox</title>
    <desc>Created with Sketch.</desc>
    <defs></defs>
    <g id="SurfstatsV2" stroke="none" stroke-width="1" fill="none" fill-rule="evenodd">
        <g id="V29" transform="translate(-488.000000, -310.000000)">
            <g id="Group-3" transform="translate(339.000000, 140.000000)">
                <g id="card1" transform="translate(0.000000, 25.000000)">
                    <g id="stats" transform="translate(44.000000, 0.000000)">
                        <g id="Group" transform="translate(10.000000, 0.000000)">
                            <g id="firefox" transform="translate(95.000000, 145.000000)">
                                <g id="img" transform="translate(0.000000, 0.000000)">
                                    <path d="M16.0556364,32.1094526 C7.18835328,32.1094526 0,24.9215068 0,16.0547263 C0,7.1879458 7.18835328,0 16.0556364,0 C24.9229196,0 32.1112728,7.1879458 32.1112728,16.0547263 C32.1112728,24.9215068 24.9229196,32.1094526 16.0556364,32.1094526 Z M16.5100578,29.2363113 C24.8057575,29.2363113 29.3896801,24.3203691 29.3896801,16.0547263 C29.3896801,10.9811404 27.5547291,6.98254468 23.8755811,4.27596333 C23.6191834,4.08734324 24.1582942,3.42201644 23.875581,3.25106217 C21.6059755,1.87865125 18.9424032,1.08845602 16.0935997,1.08845602 C9.97474817,1.08845602 4.71042953,4.73389017 2.36897115,9.96392506 C1.53597179,11.824567 2.08085215,13.8857653 2.08085215,16.0547263 C2.08085215,24.3203691 8.21435806,29.2363113 16.5100578,29.2363113 Z" id="Oval-1" fill="#F5A623"></path>
                                    <path d="M2.91041645,3.3753829 L5.06932675,6.49060993 L8.77211199,6.82676639 L12.3620011,4.76890423 L11.2317295,7.16292285 C11.2317295,7.16292285 11.7815418,7.97155851 11.7815418,8.73342458 C11.7815418,8.73342458 15.356403,8.73342458 15.356403,8.73342458 C15.356403,8.73342458 16.0744781,9.20351215 15.4557756,9.93242691 C14.8370731,10.6613417 12.2949444,12.6357626 12.2949444,12.6357626 L12.2776563,14.7289677 L9.93303052,14.7794576 C9.93303052,14.7794576 9.86204475,17.6244308 11.7451321,18.1492601 C13.6282195,18.6740893 16.1032915,17.39138 16.1032915,17.39138 C16.1032915,17.39138 17.9942371,17.0998673 18.7124768,17.9491606 C19.4307166,18.7984539 19.350301,19.0663161 18.4327248,19.3716472 C17.5151486,19.6769782 15.4466077,21.4433276 13.862132,21.4433276 C12.2776563,21.4433276 11.7797082,21.3752991 11.7797082,21.3752991 C11.7797082,21.3752991 12.4253906,22.3686216 13.7413776,22.7922053 C15.0573647,23.215789 21.1511392,24.7296889 24.1891204,19.3232832 C24.8086088,17.9491606 24.7913207,15.3452103 24.7913207,15.3452103 L26.0900197,16.2234689 C26.0900197,16.2234689 26.9384437,12.8656246 26.0900197,10.7995246 C26.0900197,10.7995246 27.1186585,10.6594815 27.1186585,10.6594815 C27.1186585,10.6594815 25.323583,6.81401105 21.1899063,5.79145764 C21.1899063,5.79145764 23.5824672,5.15422191 23.5824672,5.15422191 C23.5824672,5.15422191 21.9678684,3.62278343 19.3835674,3.13303136 L23.9274423,3.25154977 L28.6895133,7.73106713 L30.7161438,14.2333695 L30.0343138,20.8021059 L26.8965333,26.058902 L22.8602983,29.4441172 L17.7283679,30.8939746 L9.6252509,29.7823995 L2.28673707,23.0778718 L0.823277733,12.9352475 L1.98602983,8.55484976 L2.91041645,3.3753829 Z" id="Path-17" fill="#F6A623"></path>
                                </g>
                            </g>
                        </g>
                    </g>
                </g>
            </g>
        </g>
    </g>
</svg>