<?xml version="1.0" encoding="UTF-8"?>
<svg width="27px" height="26px" viewBox="0 0 27 26" version="1.1" xmlns="http://www.w3.org/2000/svg" xmlns:xlink="http://www.w3.org/1999/xlink">
    <!-- Generator: Sketch 43.2 (39069) - http://www.bohemiancoding.com/sketch -->
    <title>ie</title>
    <desc>Created with Sketch.</desc>
    <defs></defs>
    <g id="SurfstatsV2" stroke="none" stroke-width="1" fill="none" fill-rule="evenodd">
        <g id="V29" transform="translate(-491.000000, -440.000000)" fill="#68D1FF">
            <g id="Group-3" transform="translate(339.000000, 140.000000)">
                <g id="card1" transform="translate(0.000000, 25.000000)">
                    <g id="stats" transform="translate(44.000000, 0.000000)">
                        <g id="Group" transform="translate(10.000000, 0.000000)">
                            <g id="ie" transform="translate(95.000000, 272.000000)">
                                <g id="img">
                                    <path d="M6.12805555,20.0904529 L10.1499407,12.7077031 C10.1499407,12.7077031 7.69972223,14.747397 5.79579485,16.9521667 C5.96993732,10.6238186 11.1346763,5.54741505 17.4804535,5.54741505 C23.9362182,5.54741505 29.1696495,10.8013161 29.1696495,17.2823315 C29.1696495,17.7534233 29.1419985,18.2180315 29.0882368,18.6746097 L25.2072102,18.6746097 L12.5274043,18.6746097 C12.5274043,21.7503459 14.6562577,24.2437226 17.2823315,24.2437226 C19.0423259,24.2437226 20.5789848,23.1237778 21.4011341,21.4591662 L28.4075241,21.4591662 C26.730647,25.8779185 22.4707367,29.017248 17.4804535,29.017248 C11.9887968,29.017248 7.38164667,25.215413 6.12805555,20.0904529 Z M21.8403513,15.0944657 C21.2558015,12.7940331 19.4363275,11.116528 17.2823315,11.116528 C15.1283355,11.116528 13.3088616,12.7940331 12.7243118,15.0944657 L21.8403513,15.0944657 Z" id="Oval-1"></path>
                                    <path d="M26.5381297,12.5828521 C28.4687517,9.01736773 28.9566274,5.96493789 27.5149513,4.5232618 C25.046119,2.05442951 17.8536453,5.24413527 11.4501115,11.647669 C5.04657775,18.0512028 1.85687199,25.2436766 4.32570428,27.7125088 C5.54077352,28.9275781 7.90002659,28.7720082 10.746285,27.5372436 C8.44895427,28.3043286 6.45697335,28.3988994 5.5802229,27.5221494 C3.14064269,25.0825703 6.89442701,18.9972387 12.7237903,13.1678755 C18.5531535,7.33851223 24.8020668,3.71504882 27.3415357,6.25763104 C28.394605,7.31199133 27.8686607,9.74110044 26.5381297,12.5828521 Z" id="Path-2"></path>
                                </g>
                            </g>
                        </g>
                    </g>
                </g>
            </g>
        </g>
    </g>
</svg>