<?xml version="1.0" encoding="UTF-8"?>
<svg width="32px" height="32px" viewBox="0 0 32 32" version="1.1" xmlns="http://www.w3.org/2000/svg" xmlns:xlink="http://www.w3.org/1999/xlink">
    <!-- Generator: Sketch 48.2 (47327) - http://www.bohemiancoding.com/sketch -->
    <title>Opera</title>
    <desc>Created with Sketch.</desc>
    <defs>
        <linearGradient x1="50.0009721%" y1="1.63134428%" x2="50.0009721%" y2="98.5433682%" id="linearGradient-1">
            <stop stop-color="#FF1B2D" offset="0%"></stop>
            <stop stop-color="#FF1B2D" offset="30%"></stop>
            <stop stop-color="#FF1B2D" offset="61%"></stop>
            <stop stop-color="#A70014" offset="100%"></stop>
        </linearGradient>
        <linearGradient x1="49.9990268%" y1="0.848538179%" x2="49.9990268%" y2="99.613169%" id="linearGradient-2">
            <stop stop-color="#9C0000" offset="0%"></stop>
            <stop stop-color="#FF4B4B" offset="70%"></stop>
            <stop stop-color="#FF4B4B" offset="100%"></stop>
        </linearGradient>
    </defs>
    <g id="Resume2018V1" stroke="none" stroke-width="1" fill="none" fill-rule="evenodd">
        <g id="Opera" fill-rule="nonzero">
            <path d="M16,0.235294118 C7.29411765,0.235294118 0.235294118,7.29411765 0.235294118,16 C0.235294118,24.454902 6.89254902,31.3537255 15.2501961,31.7458824 C15.5011765,31.7584314 15.7490196,31.7647059 16,31.7647059 C20.0376471,31.7647059 23.7176471,30.2462745 26.5066667,27.7521569 C24.6588235,28.9788235 22.4972549,29.6815686 20.1882353,29.6815686 C16.4329412,29.6815686 13.0729412,27.8180392 10.8109804,24.8815686 C9.06666667,22.8235294 7.94039216,19.7835294 7.86196078,16.3701961 C7.86196078,16.3607843 7.86196078,15.6360784 7.86196078,15.6266667 C7.94039216,12.2133333 9.06666667,9.17019608 10.8109804,7.11529412 C13.0729412,4.17882353 16.4360784,2.31529412 20.1882353,2.31529412 C22.4972549,2.31529412 24.6588235,3.02117647 26.5066667,4.24784314 C23.7333333,1.76627451 20.0721569,0.250980392 16.0596078,0.235294118 C16.0407843,0.235294118 16.0188235,0.235294118 16,0.235294118 Z" id="Shape" fill="url(#linearGradient-1)"></path>
            <path d="M10.8109804,7.11529412 C12.2572549,5.40862745 14.1270588,4.37647059 16.1662745,4.37647059 C20.7560784,4.37647059 24.4768627,9.58117647 24.4768627,15.9968627 C24.4768627,22.4156863 20.7560784,27.6172549 16.1662745,27.6172549 C14.1239216,27.6172549 12.2572549,26.5882353 10.8109804,24.8815686 C13.0729412,27.8180392 16.4329412,29.6815686 20.1882353,29.6815686 C22.4972549,29.6815686 24.6588235,28.9756863 26.5066667,27.7521569 C29.734902,24.8658824 31.7647059,20.6713725 31.7647059,16 C31.7647059,11.3317647 29.734902,7.13411765 26.5066667,4.24784314 C24.6588235,3.02117647 22.4972549,2.31843137 20.1882353,2.31843137 C16.4329412,2.31843137 13.0729412,4.18196078 10.8109804,7.11843137" id="Shape" fill="url(#linearGradient-2)"></path>
        </g>
    </g>
</svg>