<?xml version="1.0" encoding="UTF-8"?>
<svg width="32px" height="31px" viewBox="0 0 32 31" version="1.1" xmlns="http://www.w3.org/2000/svg" xmlns:xlink="http://www.w3.org/1999/xlink">
    <!-- Generator: Sketch 43.2 (39069) - http://www.bohemiancoding.com/sketch -->
    <title>safari</title>
    <desc>Created with Sketch.</desc>
    <defs></defs>
    <g id="SurfstatsV2" stroke="none" stroke-width="1" fill="none" fill-rule="evenodd">
        <g id="V29" transform="translate(-488.000000, -374.000000)">
            <g id="Group-3" transform="translate(339.000000, 140.000000)">
                <g id="card1" transform="translate(0.000000, 25.000000)">
                    <g id="stats" transform="translate(44.000000, 0.000000)">
                        <g id="Group" transform="translate(10.000000, 0.000000)">
                            <g id="safari" transform="translate(95.000000, 209.000000)">
                                <g id="img">
                                    <ellipse id="Oval-1" fill="#56AFEF" cx="15.9622575" cy="15.5" rx="15.9622575" ry="15.5"></ellipse>
                                    <path d="M10.2375159,12.8145474 C9.98080356,13.3234653 9.79478035,13.8730978 9.69210261,14.4509764 L4.3180791,15.5 L9.69210261,16.5490236 C10.136954,19.052683 12.1462469,21.0261487 14.6907195,21.4554233 L15.7333333,26.7966102 L16.7759471,21.4554233 C19.3204197,21.0261487 21.3297127,19.052683 21.7745641,16.5490236 L27.1485876,15.5 L21.7745641,14.4509764 C21.3297127,11.947317 19.3204197,9.97385133 16.7759471,9.54457669 L15.7333333,4.20338983 L14.6907195,9.54457669 C14.1095679,9.64262202 13.5563342,9.82122085 13.0432815,10.0682919 L14.6491975,11.1624161 C14.9965698,11.0784357 15.3596721,11.0338983 15.7333333,11.0338983 C18.2370242,11.0338983 20.2666667,13.0334401 20.2666667,15.5 C20.2666667,17.9665599 18.2370242,19.9661017 15.7333333,19.9661017 C13.2296425,19.9661017 11.2,17.9665599 11.2,15.5 C11.2,15.1222711 11.2475989,14.7554945 11.3372099,14.4051744 L10.2375159,12.8145474 Z" id="Oval-2" fill="#FFFFFF"></path>
                                    <polygon id="Triangle-5" fill="#F64747" transform="translate(10.665365, 10.495134) rotate(-45.000000) translate(-10.665365, -10.495134) " points="10.6653646 3.4019134 13.0653646 17.5883541 8.26536458 17.5883541"></polygon>
                                    <polygon id="Triangle-6" fill="#F8D9D9" transform="translate(20.798698, 20.478185) scale(-1, -1) rotate(-45.000000) translate(-20.798698, -20.478185) " points="20.7986979 13.3849642 23.1986979 27.5714049 18.3986979 27.5714049"></polygon>
                                    <ellipse id="Oval-4" fill="#FFFFFF" cx="15.7333333" cy="15.5" rx="2.4" ry="2.36440678"></ellipse>
                                </g>
                            </g>
                        </g>
                    </g>
                </g>
            </g>
        </g>
    </g>
</svg>